<svg width="139" height="90" viewBox="0 0 139 90" fill="none" xmlns="http://www.w3.org/2000/svg">
<g clip-path="url(#clip0_1_295)">
<path d="M1.95569 78.097L3.06181 79.25C3.18601 79.3793 3.35022 79.4873 3.54229 79.5662C3.73436 79.6452 3.9494 79.693 4.17151 79.7061L11.223 80.1203L11.3742 76.9808L1.95569 78.097Z" fill="#12B475" stroke="black" stroke-width="0.586957" stroke-linecap="round" stroke-linejoin="round"/>
<path d="M136.957 78.6719L135.4 79.4781C135.138 79.6126 134.838 79.6928 134.526 79.7116L127.539 80.1203L127.95 76.9808L136.957 78.6719Z" fill="#12B475" stroke="black" stroke-width="0.586957" stroke-linecap="round" stroke-linejoin="round"/>
<path d="M3.44987 78.2723L11.7949 77.3578V87.6986C11.7949 88.1879 11.987 88.6573 12.329 89.0034C12.6709 89.3493 13.1347 89.5438 13.6183 89.5438H125.292C125.776 89.5438 126.239 89.3493 126.581 89.0034C126.923 88.6573 127.115 88.1879 127.115 87.6986V78.4352L136.955 79.2102V4.63806C136.955 3.84287 136.643 3.08012 136.088 2.51745C135.533 1.95479 134.78 1.63827 133.994 1.63745H4.92074C4.53132 1.63732 4.14571 1.71484 3.7859 1.86558C3.42612 2.01632 3.0992 2.23735 2.82384 2.516C2.54848 2.79467 2.33009 3.1255 2.18112 3.48961C2.03217 3.85373 1.95557 4.24398 1.95569 4.63806V76.9109C1.95517 77.1029 1.99467 77.2928 2.0716 77.4683C2.14853 77.6438 2.26117 77.8009 2.40217 77.9295C2.54318 78.058 2.70937 78.1549 2.88989 78.214C3.07042 78.273 3.26124 78.2928 3.44987 78.2723Z" fill="#12B475" stroke="black" stroke-width="0.586957" stroke-linecap="round" stroke-linejoin="round"/>
<path d="M1.95569 14.2001H136.955" stroke="black" stroke-width="0.586957" stroke-miterlimit="10"/>
<path d="M127.539 17.3374H136.957" stroke="black" stroke-width="0.586957" stroke-miterlimit="10"/>
<path d="M127.539 20.4786H136.957" stroke="black" stroke-width="0.586957" stroke-miterlimit="10"/>
<path d="M127.539 20.4786H136.957" stroke="black" stroke-width="0.586957" stroke-miterlimit="10"/>
<path d="M127.539 23.6138H136.957" stroke="black" stroke-width="0.586957" stroke-miterlimit="10"/>
<path d="M127.539 26.7495H136.957" stroke="black" stroke-width="0.586957" stroke-miterlimit="10"/>
<path d="M127.539 29.8925H136.957" stroke="black" stroke-width="0.586957" stroke-miterlimit="10"/>
<path d="M127.539 33.0259H136.957" stroke="black" stroke-width="0.586957" stroke-miterlimit="10"/>
<path d="M127.539 33.0259H136.957" stroke="black" stroke-width="0.586957" stroke-miterlimit="10"/>
<path d="M127.539 36.1764H136.957" stroke="black" stroke-width="0.586957" stroke-miterlimit="10"/>
<path d="M127.539 39.3121H136.957" stroke="black" stroke-width="0.586957" stroke-miterlimit="10"/>
<path d="M1.95569 17.3374H11.3742" stroke="black" stroke-width="0.586957" stroke-miterlimit="10"/>
<path d="M1.95569 20.4786H11.3742" stroke="black" stroke-width="0.586957" stroke-miterlimit="10"/>
<path d="M1.95569 20.4786H11.3742" stroke="black" stroke-width="0.586957" stroke-miterlimit="10"/>
<path d="M1.95569 23.6138H11.3742" stroke="black" stroke-width="0.586957" stroke-miterlimit="10"/>
<path d="M1.95569 26.7495H11.3742" stroke="black" stroke-width="0.586957" stroke-miterlimit="10"/>
<path d="M1.95569 29.8925H11.3742" stroke="black" stroke-width="0.586957" stroke-miterlimit="10"/>
<path d="M1.95569 33.0259H11.3742" stroke="black" stroke-width="0.586957" stroke-miterlimit="10"/>
<path d="M1.95569 33.0259H11.3742" stroke="black" stroke-width="0.586957" stroke-miterlimit="10"/>
<path d="M1.95569 36.1764H11.3742" stroke="black" stroke-width="0.586957" stroke-miterlimit="10"/>
<path d="M1.95569 39.3121H11.3742" stroke="black" stroke-width="0.586957" stroke-miterlimit="10"/>
<path d="M125.308 17.3374H13.5932C12.365 17.3374 11.3694 18.329 11.3694 19.5521V65.3549C11.3694 66.5779 12.365 67.5695 13.5932 67.5695H125.308C126.536 67.5695 127.531 66.5779 127.531 65.3549V19.5521C127.531 18.329 126.536 17.3374 125.308 17.3374Z" fill="#B4FF39" stroke="black" stroke-width="0.586957" stroke-miterlimit="10"/>
<path d="M133.816 42.4551V76.9897" stroke="black" stroke-width="0.586957" stroke-linecap="round" stroke-linejoin="round"/>
<path d="M5.09265 42.4551V76.9897" stroke="black" stroke-width="0.586957" stroke-linecap="round" stroke-linejoin="round"/>
<path d="M114.976 24.0008C124.394 22.431 122.825 25.5705 122.825 36.5587" stroke="white" stroke-width="0.586957" stroke-linecap="round"/>
</g>
<defs>
<clipPath id="clip0_1_295">
<rect width="138.913" height="90" fill="white"/>
</clipPath>
</defs>
</svg>
